<?xml version="1.0" encoding="iso-8859-1"?>
<!-- Uploaded to: SVG Repo, www.svgrepo.com, Generator: SVG Repo Mixer Tools -->
<svg height="40px" width="40px" version="1.1" id="Layer_1" xmlns="http://www.w3.org/2000/svg" xmlns:xlink="http://www.w3.org/1999/xlink" 
	 viewBox="0 0 512 512" xml:space="preserve">
<path style="fill:#E07188;" d="M438.885,209.796c-3.287-4.008-8.196-6.331-13.379-6.331H148.73c-5.183,0-10.092,2.325-13.379,6.331
	c-3.286,4.009-4.6,9.278-3.584,14.36l46.129,230.644c1.617,8.085,8.717,13.906,16.963,13.906h184.517
	c8.246,0,15.346-5.82,16.963-13.906l46.129-230.644C443.486,219.074,442.171,213.804,438.885,209.796z"/>
<path style="fill:#DC4161;" d="M425.507,203.464H287.119v265.241h92.259c8.246,0,15.346-5.82,16.963-13.906l15.67-78.351h13.496
	c47.692,0,86.493-38.801,86.493-86.493S473.199,203.464,425.507,203.464z M425.507,341.852h-6.577l20.383-101.911
	c21.933,6.063,38.089,26.181,38.089,50.016C477.403,318.572,454.123,341.852,425.507,341.852z"/>
<path style="fill:#D6E5F6;" d="M258.289,168.867c-9.553,0-17.298-7.744-17.298-17.299c0-9.723-3.75-13.883-12.232-22.365
	c-9.44-9.439-22.368-22.366-22.365-46.829c-0.003-24.464,12.928-37.391,22.368-46.829c6.757-6.754,17.709-6.753,24.465,0.003
	c6.754,6.756,6.752,17.709-0.003,24.464c-8.483,8.481-12.233,12.641-12.232,22.364c-0.001,9.725,3.748,13.884,12.23,22.365
	c9.44,9.438,22.367,22.365,22.367,46.829C275.587,161.124,267.842,168.867,258.289,168.867z"/>
<path style="fill:#BCD6F2;" d="M350.547,168.867c-9.553,0-17.298-7.744-17.298-17.299c0-9.723-3.75-13.883-12.232-22.365
	c-9.44-9.439-22.368-22.366-22.365-46.829c-0.003-24.464,12.928-37.391,22.368-46.829c6.757-6.754,17.709-6.753,24.465,0.003
	c6.754,6.756,6.752,17.709-0.003,24.464c-8.483,8.481-12.233,12.641-12.232,22.364c-0.001,9.725,3.748,13.884,12.229,22.365
	c9.439,9.438,22.368,22.365,22.368,46.829C367.846,161.124,360.101,168.867,350.547,168.867z"/>
<path style="fill:#E9A440;" d="M376.871,331.492c-8.104-18.734-28.137-30.319-56.41-32.617
	c-23.897-1.941-52.848,2.837-81.521,13.457c-8.959,3.319-13.53,13.271-10.212,22.231c2.935,7.92,11.055,12.402,19.089,11.041
	l12.997,77.308c-0.999,0.379-1.999,0.778-2.997,1.141c-8.976,3.271-13.602,13.199-10.332,22.176
	c2.558,7.023,9.19,11.384,16.255,11.384c1.965,0,3.965-0.338,5.921-1.049c4.705-1.714,9.451-3.602,14.109-5.617
	C353.293,420.885,393.318,369.532,376.871,331.492z"/>
<g>
	<path style="fill:#F4D853;" d="M169.187,242.588c10.62-28.673,15.4-57.628,13.458-81.528
		c-2.298-28.276-13.883-48.309-32.619-56.409c-38.039-16.447-89.392,23.574-119.451,93.094c-1.997,4.618-3.886,9.361-5.614,14.098
		c-3.274,8.976,1.349,18.905,10.326,22.177c8.971,3.273,18.906-1.349,22.176-10.324c0.364-1.001,0.762-1.999,1.143-3l77.308,13.012
		c-1.362,8.036,3.121,16.159,11.042,19.093c1.981,0.733,4.011,1.082,6.006,1.082C159.993,253.883,166.604,249.567,169.187,242.588z"
		/>
	<path style="fill:#F4D853;" d="M271.017,465.635c8.449-10.093,11.885-23.738,9.436-37.435L262.504,327.92
		c-2.7-15.087-12.058-29.102-25.678-38.458c-7.873-5.409-18.643-3.409-24.052,4.465c-5.409,7.874-3.409,18.643,4.465,24.052
		c0.067,0.045,0.126,0.099,0.191,0.145l-78.114,117.187c-4.967-3.303-11.504-3.96-17.24-1.13
		c-8.569,4.229-12.086,14.601-7.858,23.168c7.356,14.911,22.842,24.171,40.415,24.171h81.192
		C249.743,481.52,262.571,475.728,271.017,465.635z"/>
</g>
<path style="fill:#E9A440;" d="M188.772,240.329c-9.308-11.354-21.801-18.922-35.174-21.314L53.321,201.07
	c-13.696-2.452-27.344,0.985-37.44,9.433C5.789,218.949,0,231.776,0,245.693v81.189c-0.003,15.384,6.817,28.946,18.712,37.21
	c3.01,2.089,6.448,3.092,9.854,3.092c5.476,0,10.863-2.594,14.223-7.431c4.183-6.022,3.996-13.763,0.143-19.505l117.984-79.225
	c0.372,0.406,0.748,0.811,1.102,1.244c6.058,7.388,16.958,8.467,24.345,2.409C193.751,258.617,194.831,247.718,188.772,240.329z"/>
<path style="fill:#F4D853;" d="M151.239,451.531l82.959-116.226c15.682-21.975,13.012-54.141-6.079-73.233l-11.854-11.854
	c-10.312-10.312-25.089-16.226-40.541-16.227c-11.909,0.001-23.523,3.607-32.693,10.154L26.802,327.099
	c-11.294,8.062-18.395,20.22-19.485,33.354c-1.087,13.133,3.914,26.294,13.727,36.109l60.733,60.733
	c8.946,8.946,20.491,13.872,32.503,13.872C128.86,471.167,142.331,464.01,151.239,451.531z"/>
<path style="fill:#E9A440;" d="M151.239,451.531l82.959-116.226c15.682-21.975,13.012-54.141-6.079-73.233l-5.923-5.922
	L51.415,426.932l30.363,30.364c8.946,8.946,20.491,13.872,32.503,13.872C128.86,471.167,142.331,464.01,151.239,451.531z"/>
</svg>