<?xml version="1.0"?>
<svg version="1.1" xmlns="http://www.w3.org/2000/svg" width="450" height="270px" style=""><path fill="#cf34e0" d="M130.2,133q-5,0-9.3-0.8q1.4,4.4,5.9,19.9q1.4,4.5,4.4,9.1q4.1,5.9,7.6,5.9q4.2,0,7-8.5q0.5-2,1.05-2t0.8,1.15t0.25,1.55q0,2.5-2.8,6.4q-3.7,5.5-8.1,5.5t-8.1-4.4t-7.25-16.05t-3.55-14.85q0-0.5,0.1-0.8q-12,15.9-17.2,21q-11.6,11.3-23.7,11.3q-8.5,0-8.5-6.4q0-3.2,2-7.05t4.9-6.75t5.1-2.9q0.4,0,0.4,0.2q0,0.5-2.5,2.5t-4.8,5.65t-2.3,6.65q0,5.3,7.1,5.3q13.3,0,36.6-31.2q1.3-1.7,2.2-2.4l-1.6-0.6q-1.3,0.5-2.1,0.5q-2.1,0-2.1-1.7q0-2.3,3.1-3q0.4-0.1,0.7-0.1q1.8,0,4.2,1.8q8.8-9.8,9-10q7.3-7.5,9.85-7.5t2.55,2.2q0,1-0.45,1.9t-1.05,0.9q-0.6,0.2-0.6-0.6q0-0.4,0.6-1.2q0.1-1.4-0.9-1.4q-3.2,0-15.5,17q3,0.2,5,0.2q23.2,0,29-12q1.2-2.6,1.2-4.8q0-4.4-4-7.6q-6.4-5.2-20.8-5.2t-29.4,7.3q-18.2,8.9-18.2,20.9q0,3.9,4.9,3.9t10.4-3.6t7.4-7.1q0.7-1.3,1.35-1.3t0.35,0.8q-1.9,5.6-8.45,9.55t-13.65,3.95t-7.1-4.5l0-0.7q1.5-13.1,16.05-22.25t35.05-9.15q19.1,0,27.1,6.6q4.8,4,4.8,9.4q0,2.3-1.1,5q-3.1,7.3-12.7,10.85t-20.2,3.55z M157.717,161.3q-1.1,0-2-0.3q-6.4-1.8-6.4-7.2q0-7,8.8-16.2t15.8-9.2q2.3,0,3.75,1.25t1.45,3.05q0,5.6-8.45,10.7t-13.75,5.1q-0.8,0-1.4-0.2q-1.5,2.7-1.5,5.7q0,5.2,4.95,5.2t12.85-6.7q6.1-4.9,10.4-10.4q0.9-1.2,1.55-1.2t0.65,0.6t-0.8,1.7q-5.4,7.1-13,12.6t-12.9,5.5z M176.617,132.5q0-1.2-2.55-1.2t-7.25,3.9q-6.3,5.2-9.8,10.9q0.6,0.2,1.3,0.2q3.8,0,10.15-4.05t7.95-8.85q0.2-0.5,0.2-0.9z M190.334,161.3q-1.1,0-2-0.3q-6.4-1.8-6.4-7.2q0-7,8.8-16.2t15.8-9.2q2.3,0,3.75,1.25t1.45,3.4t-1.3,4.5t-3.9,2.35t-2.6-1.6q0-1.1,1.35-3.35t1.35-2.4t-0.3-0.15q-2.8,0.3-7.65,4t-6.65,6.2l-3.9,5.7q-1,1.6-1.45,3.8t-0.45,3.3t1.25,2.5t3.55,1.4q5,0,12.4-5.85t11.4-11.15q0.5-0.6,1.2-0.6t0.7,0.4t-0.5,1q-5.5,7.3-13.15,12.75t-12.75,5.45z M240.001,120.15q1.35,0.95,1.35,2.25t-1.25,2.25t-2.75,0.95t-2.75-1.1t-1.25-2.5q0-2.8,3.8-2.8q1.5,0,2.85,0.95z M219.051,161.1q-5.1,0-5.1-6.6q0-5.4,5.9-14.95t9.5-9.65q1,0,2.25,0.8t1.25,1.6q-0.5,0.7-1.2,1.55t-1.5,1.85t-2.2,2.85t-2.7,3.55q-7.5,9.7-7.5,13.35t2.5,3.65q2.1,0,5.7-2.3q8.4-5.2,13.3-11.4q1.8-2.3,2.45-2.3t0.65,0.8t-2.3,3.2t-3.65,3.8t-1.85,1.85t-1.85,1.7t-2.05,1.75t-2,1.5t-2.3,1.45t-2.3,1.05q-2.1,0.9-5,0.9z M362.068,115.3q0,5.1-5.1,11.2t-15.45,9.9t-20.1,3.8t-15.45-2.5q-12.6,18.5-16.4,22.3q-10.8,10.8-25.8,10.8q-8.5,0-12.75-3.95t-4.25-10.25q0-8.7,7-16.4q7.7-8.5,19.4-8.5q4.8,0,8.1,2.2t3.3,6.7q0,3-3.4,7.2t-4.2,4.2q-0.2,0-0.2-0.4t0.3-0.8q3.2-4.7,3.2-8.65t-2.45-6.1t-6.05-2.15q-8.4,0-14.85,7.65t-6.45,15.45q0,5,3.15,8.1t9.75,3.1q12.3,0,21.1-8.3q5.1-4.8,10.3-14l8.7-15.7q6.4-10.3,14.9-30.6l-1.8,0q-13.5,0-27.1,2.95t-20.6,8.45q-3,2.3-3,4.5t2.35,3.55t5.55,1.35t7.95-1.25t7.15-3.35q1-0.8,1.4-0.8q0.8,0,0.3,0.8q-3.6,4.2-10.9,6.3q-4.5,1.3-8.9,1.3t-7.2-1.95t-2.8-5.3t3.6-6.75q6.8-6.6,24.3-9.8q12.4-2.2,28.5-2.2l2.7,0q2.2-1.9,4-1.9t1.8,1.4q0,0.3-0.1,0.7q15.5,1.1,25.1,5.2q11.4,4.8,11.4,12.5z M357.368,114.3q0-6.3-10.2-10.3q-8.9-3.5-22.3-4.2l-3.2,10q-3.8,9.4-14.6,26.2q1,0.5,3.4,1.1q4,0.7,6.2,0.7q7.6,0,17.5-3.15t16.55-9.2t6.65-11.15z M377.135,120.15q1.35,0.95,1.35,2.25t-1.25,2.25t-2.75,0.95t-2.75-1.1t-1.25-2.5q0-2.8,3.8-2.8q1.5,0,2.85,0.95z M356.185,161.1q-5.1,0-5.1-6.6q0-5.4,5.9-14.95t9.5-9.65q1,0,2.25,0.8t1.25,1.6q-0.5,0.7-1.2,1.55t-1.5,1.85t-2.2,2.85t-2.7,3.55q-7.5,9.7-7.5,13.35t2.5,3.65q2.1,0,5.7-2.3q8.4-5.2,13.3-11.4q1.8-2.3,2.45-2.3t0.65,0.8t-2.3,3.2t-3.65,3.8t-1.85,1.85t-1.85,1.7t-2.05,1.75t-2,1.5t-2.3,1.45t-2.3,1.05q-2.1,0.9-5,0.9z M384.702,161.3q-1.1,0-2-0.3q-6.4-1.8-6.4-7.2q0-7,8.8-16.2t15.8-9.2q2.3,0,3.75,1.25t1.45,3.05q0,5.6-8.45,10.7t-13.75,5.1q-0.8,0-1.4-0.2q-1.5,2.7-1.5,5.7q0,5.2,4.95,5.2t12.85-6.7q6.1-4.9,10.4-10.4q0.9-1.2,1.55-1.2t0.65,0.6t-0.8,1.7q-5.4,7.1-13,12.6t-12.9,5.5z M403.602,132.5q0-1.2-2.55-1.2t-7.25,3.9q-6.3,5.2-9.8,10.9q0.6,0.2,1.3,0.2q3.8,0,10.15-4.05t7.95-8.85q0.2-0.5,0.2-0.9z"/><path fill="#" d=""/></svg>
